<svg width="1440" height="295" viewBox="0 0 1440 295" fill="none" xmlns="http://www.w3.org/2000/svg">
<g clip-path="url(#clip0)">
<rect width="1440" height="295" fill="#1E252E"/>
<rect width="1440" height="296" fill="black"/>
<mask id="mask0" mask-type="alpha" maskUnits="userSpaceOnUse" x="0" y="0" width="1440" height="300">
<rect width="1440" height="300" fill="black"/>
</mask>
<g mask="url(#mask0)">
</g>
<g clip-path="url(#clip1)">
<path opacity="0.5" d="M619 61.8918L618.588 61.8918L618.588 62.304L619 61.8918Z" fill="#2E3741"/>
<path opacity="0.5" d="M619 136.905L618.588 136.493L618.588 136.905L619 136.905Z" fill="#2E3741"/>
<path opacity="0.5" d="M619 211.507L618.588 211.095L618.588 211.507L619 211.507Z" fill="#2E3741"/>
<path opacity="0.5" d="M619 286.108L618.588 285.696L618.588 286.108L619 286.108Z" fill="#2E3741"/>
<path opacity="0.5" d="M582.359 6.24999L580.713 5.42566L580.713 7.07433L582.359 6.24999Z" fill="#2E3741"/>
<path opacity="0.5" d="M582.359 43.3446L580.713 42.5203L580.713 44.1689L582.359 43.3446Z" fill="#2E3741"/>
<path opacity="0.5" d="M582.359 80.8514L580.713 80.0271L580.713 81.6758L582.359 80.8514Z" fill="#2E3741"/>
<path opacity="0.5" d="M582.359 117.946L580.713 117.122L580.713 118.77L582.359 117.946Z" fill="#2E3741"/>
<path opacity="0.5" d="M582.359 155.453L580.713 154.628L580.713 156.277L582.359 155.453Z" fill="#2E3741"/>
<path opacity="0.5" d="M582.359 192.547L580.713 191.723L580.713 193.372L582.359 192.547Z" fill="#2E3741"/>
<path opacity="0.5" d="M582.359 230.054L580.713 229.23L580.713 230.878L582.359 230.054Z" fill="#2E3741"/>
<path opacity="0.5" d="M582.359 267.149L580.713 266.324L580.713 267.973L582.359 267.149Z" fill="#2E3741"/>
<path opacity="0.5" d="M545.719 24.7972L542.837 23.1486L542.837 26.4458L545.719 24.7972Z" fill="#2E3741"/>
<path opacity="0.5" d="M545.719 61.8918L542.837 60.2432L542.837 63.9526L545.719 61.8918Z" fill="#2E3741"/>
<path opacity="0.5" d="M545.719 99.3987L542.837 97.75L542.837 101.047L545.719 99.3987Z" fill="#2E3741"/>
<path opacity="0.5" d="M545.719 136.905L542.837 134.845L542.837 138.554L545.719 136.905Z" fill="#2E3741"/>
<path opacity="0.5" d="M545.719 174L542.837 172.351L542.837 175.649L545.719 174Z" fill="#2E3741"/>
<path opacity="0.5" d="M545.719 211.507L542.837 209.446L542.837 213.156L545.719 211.507Z" fill="#2E3741"/>
<path opacity="0.5" d="M545.719 248.601L542.837 246.953L542.837 250.25L545.719 248.601Z" fill="#2E3741"/>
<path opacity="0.5" d="M545.719 286.108L542.837 284.047L542.837 287.757L545.719 286.108Z" fill="#2E3741"/>
<path opacity="0.5" d="M509.49 6.25002L504.55 3.36487L504.55 8.72301L509.49 6.25002Z" fill="#2E3741"/>
<path opacity="0.5" d="M509.49 43.3447L504.55 40.8717L504.55 46.2298L509.49 43.3447Z" fill="#2E3741"/>
<path opacity="0.5" d="M509.49 80.8514L504.55 77.9663L504.55 83.3244L509.49 80.8514Z" fill="#2E3741"/>
<path opacity="0.5" d="M509.49 117.946L504.55 115.473L504.55 120.831L509.49 117.946Z" fill="#2E3741"/>
<path opacity="0.5" d="M509.49 155.453L504.55 152.568L504.55 157.926L509.49 155.453Z" fill="#2E3741"/>
<path opacity="0.5" d="M509.49 192.547L504.55 190.074L504.55 195.432L509.49 192.547Z" fill="#2E3741"/>
<path opacity="0.5" d="M509.49 230.054L504.55 227.169L504.55 232.527L509.49 230.054Z" fill="#2E3741"/>
<path opacity="0.5" d="M509.49 267.149L504.55 264.676L504.55 270.034L509.49 267.149Z" fill="#2E3741"/>
<path opacity="0.5" d="M473.262 24.7973L466.263 20.6757L466.263 28.9189L473.262 24.7973Z" fill="#2E3741"/>
<path opacity="0.5" d="M473.262 61.8918L466.263 58.1824L466.263 66.0135L473.262 61.8918Z" fill="#2E3741"/>
<path opacity="0.5" d="M473.262 99.3986L466.263 95.277L466.263 103.52L473.262 99.3986Z" fill="#2E3741"/>
<path opacity="0.5" d="M473.262 136.905L466.263 132.784L466.263 140.615L473.262 136.905Z" fill="#2E3741"/>
<path opacity="0.5" d="M473.262 174L466.263 169.878L466.263 178.122L473.262 174Z" fill="#2E3741"/>
<path opacity="0.5" d="M473.262 211.507L466.263 207.385L466.263 215.216L473.262 211.507Z" fill="#2E3741"/>
<path opacity="0.5" d="M473.262 248.601L466.263 244.48L466.263 252.723L473.262 248.601Z" fill="#2E3741"/>
<path opacity="0.5" d="M473.262 286.108L466.263 281.987L466.263 289.818L473.262 286.108Z" fill="#2E3741"/>
<path opacity="0.5" d="M437.033 6.24995L427.976 0.891845L427.976 11.608L437.033 6.24995Z" fill="#2E3741"/>
<path opacity="0.5" d="M437.033 43.3446L427.976 37.9864L427.976 48.7027L437.033 43.3446Z" fill="#2E3741"/>
<path opacity="0.5" d="M437.033 80.8514L427.976 75.4933L427.976 86.2095L437.033 80.8514Z" fill="#2E3741"/>
<path opacity="0.5" d="M437.033 117.946L427.976 112.588L427.976 123.304L437.033 117.946Z" fill="#2E3741"/>
<path opacity="0.5" d="M437.033 155.453L427.976 150.095L427.976 160.811L437.033 155.453Z" fill="#2E3741"/>
<path opacity="0.5" d="M437.033 192.547L427.976 187.189L427.976 197.905L437.033 192.547Z" fill="#2E3741"/>
<path opacity="0.5" d="M437.033 230.054L427.976 224.696L427.976 235.412L437.033 230.054Z" fill="#2E3741"/>
<path opacity="0.5" d="M437.033 267.149L427.976 261.791L427.976 272.507L437.033 267.149Z" fill="#2E3741"/>
<path opacity="0.5" d="M401.216 24.7974L389.277 18.2028L389.277 31.392L401.216 24.7974Z" fill="#2E3741"/>
<path opacity="0.5" d="M401.216 61.892L389.277 55.2974L389.277 68.8987L401.216 61.892Z" fill="#2E3741"/>
<path opacity="0.5" d="M401.216 99.3986L389.277 92.804L389.277 105.993L401.216 99.3986Z" fill="#2E3741"/>
<path opacity="0.5" d="M401.216 136.905L389.277 129.899L389.277 143.5L401.216 136.905Z" fill="#2E3741"/>
<path opacity="0.5" d="M401.216 174L389.277 167.405L389.277 180.595L401.216 174Z" fill="#2E3741"/>
<path opacity="0.5" d="M401.216 211.507L389.277 204.5L389.277 218.101L401.216 211.507Z" fill="#2E3741"/>
<path opacity="0.5" d="M401.216 248.601L389.277 242.007L389.277 255.196L401.216 248.601Z" fill="#2E3741"/>
<path opacity="0.5" d="M401.216 286.108L389.277 279.101L389.277 292.703L401.216 286.108Z" fill="#2E3741"/>
<path opacity="0.5" d="M364.987 6.24995L350.99 -1.99329L350.99 14.4932L364.987 6.24995Z" fill="#2E3741"/>
<path opacity="0.5" d="M364.987 43.3446L350.99 35.1013L350.99 51.5878L364.987 43.3446Z" fill="#2E3741"/>
<path opacity="0.5" d="M364.987 80.8513L350.99 72.608L350.99 89.0945L364.987 80.8513Z" fill="#2E3741"/>
<path opacity="0.5" d="M364.987 117.946L350.99 109.703L350.99 126.189L364.987 117.946Z" fill="#2E3741"/>
<path opacity="0.5" d="M364.987 155.453L350.99 147.209L350.99 163.696L364.987 155.453Z" fill="#2E3741"/>
<path opacity="0.5" d="M364.987 192.547L350.99 184.304L350.99 200.791L364.987 192.547Z" fill="#2E3741"/>
<path opacity="0.5" d="M364.987 230.054L350.99 221.811L350.99 238.297L364.987 230.054Z" fill="#2E3741"/>
<path opacity="0.5" d="M364.987 267.149L350.99 258.906L350.99 275.392L364.987 267.149Z" fill="#2E3741"/>
<path opacity="0.5" d="M329.17 24.7973L312.291 14.9054L312.291 34.6892L329.17 24.7973Z" fill="#2E3741"/>
<path opacity="0.5" d="M329.17 61.8918L312.291 52.4121L312.291 71.7837L329.17 61.8918Z" fill="#2E3741"/>
<path opacity="0.5" d="M329.17 99.3986L312.291 89.5067L312.291 109.29L329.17 99.3986Z" fill="#2E3741"/>
<path opacity="0.5" d="M329.17 136.905L312.291 127.014L312.291 146.385L329.17 136.905Z" fill="#2E3741"/>
<path opacity="0.5" d="M329.17 174L312.291 164.108L312.291 183.892L329.17 174Z" fill="#2E3741"/>
<path opacity="0.5" d="M329.17 211.507L312.291 201.615L312.291 220.987L329.17 211.507Z" fill="#2E3741"/>
<path opacity="0.5" d="M329.17 248.601L312.291 238.709L312.291 258.493L329.17 248.601Z" fill="#2E3741"/>
<path opacity="0.5" d="M329.17 286.108L312.291 276.216L312.291 295.588L329.17 286.108Z" fill="#2E3741"/>
<path opacity="0.5" d="M293.354 6.25002L273.592 -5.29053L273.592 17.7906L293.354 6.25002Z" fill="#2E3741"/>
<path opacity="0.5" d="M293.354 43.3446L273.592 31.8041L273.592 54.8851L293.354 43.3446Z" fill="#2E3741"/>
<path opacity="0.5" d="M293.354 80.8513L273.592 69.3108L273.592 92.3919L293.354 80.8513Z" fill="#2E3741"/>
<path opacity="0.5" d="M293.354 117.946L273.592 106.405L273.592 129.486L293.354 117.946Z" fill="#2E3741"/>
<path opacity="0.5" d="M293.354 155.453L273.592 143.912L273.592 166.993L293.354 155.453Z" fill="#2E3741"/>
<path opacity="0.5" d="M293.354 192.547L273.592 181.007L273.592 204.088L293.354 192.547Z" fill="#2E3741"/>
<path opacity="0.5" d="M293.354 230.054L273.592 218.513L273.592 241.594L293.354 230.054Z" fill="#2E3741"/>
<path opacity="0.5" d="M293.354 267.149L273.592 255.608L273.592 278.689L293.354 267.149Z" fill="#2E3741"/>
<path opacity="0.5" d="M293.354 304.655L273.592 293.115L273.592 316.196L293.354 304.655Z" fill="#2E3741"/>
<path opacity="0.5" d="M257.948 -12.7095L234.894 -25.8987L234.894 0.891867L257.948 -12.7095Z" fill="#2E3741"/>
<path opacity="0.5" d="M257.948 24.7973L234.894 11.6082L234.894 37.9865L257.948 24.7973Z" fill="#2E3741"/>
<path opacity="0.5" d="M257.948 61.892L234.894 48.7028L234.894 75.4933L257.948 61.892Z" fill="#2E3741"/>
<path opacity="0.5" d="M257.948 99.3987L234.894 86.2095L234.894 112.588L257.948 99.3987Z" fill="#2E3741"/>
<path opacity="0.5" d="M257.948 136.905L234.894 123.304L234.894 150.095L257.948 136.905Z" fill="#2E3741"/>
<path opacity="0.5" d="M257.948 174L234.894 160.811L234.894 187.189L257.948 174Z" fill="#2E3741"/>
<path opacity="0.5" d="M257.948 211.507L234.894 197.905L234.894 224.696L257.948 211.507Z" fill="#2E3741"/>
<path opacity="0.5" d="M257.948 248.601L234.894 235.412L234.894 261.79L257.948 248.601Z" fill="#2E3741"/>
<path opacity="0.5" d="M257.948 286.108L234.894 272.507L234.894 299.297L257.948 286.108Z" fill="#2E3741"/>
<path opacity="0.5" d="M222.131 6.24999L195.783 -9L195.783 21.5L222.131 6.24999Z" fill="#2E3741"/>
<path opacity="0.5" d="M222.131 43.3446L195.783 28.0946L195.783 58.5946L222.131 43.3446Z" fill="#2E3741"/>
<path opacity="0.5" d="M222.131 80.8513L195.783 65.6013L195.783 96.1013L222.131 80.8513Z" fill="#2E3741"/>
<path opacity="0.5" d="M222.131 117.946L195.783 102.696L195.783 133.196L222.131 117.946Z" fill="#2E3741"/>
<path opacity="0.5" d="M222.131 155.453L195.783 140.203L195.783 170.703L222.131 155.453Z" fill="#2E3741"/>
<path opacity="0.5" d="M222.131 192.547L195.783 177.297L195.783 207.797L222.131 192.547Z" fill="#2E3741"/>
<path opacity="0.5" d="M222.131 230.054L195.783 214.804L195.783 245.304L222.131 230.054Z" fill="#2E3741"/>
<path opacity="0.5" d="M222.131 267.149L195.783 251.899L195.783 282.399L222.131 267.149Z" fill="#2E3741"/>
<path opacity="0.5" d="M222.131 304.655L195.783 289.405L195.783 319.905L222.131 304.655Z" fill="#2E3741"/>
<path opacity="0.5" d="M186.313 -12.7095L157.084 -29.6082L157.084 4.6013L186.313 -12.7095Z" fill="#2E3741"/>
<path opacity="0.5" d="M186.313 24.7973L157.084 7.89868L157.084 41.696L186.313 24.7973Z" fill="#2E3741"/>
<path opacity="0.5" d="M186.313 61.8919L157.084 44.9933L157.084 79.2027L186.313 61.8919Z" fill="#2E3741"/>
<path opacity="0.5" d="M186.313 99.3985L157.084 82.4999L157.084 116.297L186.313 99.3985Z" fill="#2E3741"/>
<path opacity="0.5" d="M186.313 136.905L157.084 119.594L157.084 153.804L186.313 136.905Z" fill="#2E3741"/>
<path opacity="0.5" d="M186.313 174L157.084 157.101L157.084 190.899L186.313 174Z" fill="#2E3741"/>
<path opacity="0.5" d="M186.313 211.507L157.084 194.196L157.084 228.405L186.313 211.507Z" fill="#2E3741"/>
<path opacity="0.5" d="M186.313 248.601L157.084 231.703L157.084 265.5L186.313 248.601Z" fill="#2E3741"/>
<path opacity="0.5" d="M186.313 286.108L157.084 268.797L157.084 303.007L186.313 286.108Z" fill="#2E3741"/>
<path opacity="0.5" d="M150.908 6.24998L117.973 -12.7095L117.973 25.2094L150.908 6.24998Z" fill="#2E3741"/>
<path opacity="0.5" d="M150.908 43.3446L117.973 24.3851L117.973 62.3041L150.908 43.3446Z" fill="#2E3741"/>
<path opacity="0.5" d="M150.908 80.8513L117.973 61.8918L117.973 99.8108L150.908 80.8513Z" fill="#2E3741"/>
<path opacity="0.5" d="M150.908 117.946L117.973 98.9864L117.973 136.905L150.908 117.946Z" fill="#2E3741"/>
<path opacity="0.5" d="M150.908 155.453L117.973 136.493L117.973 174.412L150.908 155.453Z" fill="#2E3741"/>
<path opacity="0.5" d="M150.908 192.547L117.973 173.588L117.973 211.507L150.908 192.547Z" fill="#2E3741"/>
<path opacity="0.5" d="M150.908 230.054L117.973 211.094L117.973 249.013L150.908 230.054Z" fill="#2E3741"/>
<path opacity="0.5" d="M150.908 267.149L117.973 248.189L117.973 286.108L150.908 267.149Z" fill="#2E3741"/>
<path opacity="0.5" d="M150.908 304.656L117.973 285.696L117.973 323.615L150.908 304.656Z" fill="#2E3741"/>
<path opacity="0.5" d="M115.092 -12.7094L79.2748 -33.3175L79.2748 8.31085L115.092 -12.7094Z" fill="#2E3741"/>
<path opacity="0.5" d="M115.092 24.7974L79.2748 3.7771L79.2748 45.8177L115.092 24.7974Z" fill="#2E3741"/>
<path opacity="0.5" d="M115.092 61.8918L79.2748 41.2837L79.2748 82.9121L115.092 61.8918Z" fill="#2E3741"/>
<path opacity="0.5" d="M115.092 99.3986L79.2748 78.3783L79.2748 120.419L115.092 99.3986Z" fill="#2E3741"/>
<path opacity="0.5" d="M115.092 136.905L79.2748 115.885L79.2748 157.514L115.092 136.905Z" fill="#2E3741"/>
<path opacity="0.5" d="M115.092 174L79.2748 152.98L79.2748 195.02L115.092 174Z" fill="#2E3741"/>
<path opacity="0.5" d="M115.092 211.507L79.2748 190.486L79.2748 232.115L115.092 211.507Z" fill="#2E3741"/>
<path opacity="0.5" d="M115.092 248.601L79.2748 227.581L79.2748 269.622L115.092 248.601Z" fill="#2E3741"/>
<path opacity="0.5" d="M115.092 286.108L79.2748 265.088L79.2748 306.716L115.092 286.108Z" fill="#2E3741"/>
<path opacity="0.5" d="M79.6865 6.25002L40.1644 -16.8311L40.1644 28.9189L79.6865 6.25002Z" fill="#2E3741"/>
<path opacity="0.5" d="M79.6865 43.3445L40.1644 20.6755L40.1644 66.4255L79.6865 43.3445Z" fill="#2E3741"/>
<path opacity="0.5" d="M79.6865 80.8513L40.1644 57.7703L40.1644 103.52L79.6865 80.8513Z" fill="#2E3741"/>
<path opacity="0.5" d="M79.6865 117.946L40.1644 95.277L40.1644 141.027L79.6865 117.946Z" fill="#2E3741"/>
<path opacity="0.5" d="M79.6865 155.453L40.1644 132.372L40.1644 178.122L79.6865 155.453Z" fill="#2E3741"/>
<path opacity="0.5" d="M79.6865 192.547L40.1644 169.878L40.1644 215.628L79.6865 192.547Z" fill="#2E3741"/>
<path opacity="0.5" d="M79.6865 230.054L40.1644 206.973L40.1644 252.723L79.6865 230.054Z" fill="#2E3741"/>
<path opacity="0.5" d="M79.6865 267.149L40.1644 244.48L40.1644 290.23L79.6865 267.149Z" fill="#2E3741"/>
<path opacity="0.5" d="M79.6865 304.655L40.1644 281.574L40.1644 327.324L79.6865 304.655Z" fill="#2E3741"/>
<path opacity="0.5" d="M44.2812 -12.7095L1.05384 -37.4392L1.05383 12.4324L44.2812 -12.7095Z" fill="#2E3741"/>
<path opacity="0.5" d="M44.2812 24.7973L1.05384 -0.344606L1.05383 49.9392L44.2812 24.7973Z" fill="#2E3741"/>
<path opacity="0.5" d="M44.2812 61.8918L1.05384 37.1621L1.05383 87.0337L44.2812 61.8918Z" fill="#2E3741"/>
<path opacity="0.5" d="M44.2812 99.3986L1.05384 74.2567L1.05383 124.541L44.2812 99.3986Z" fill="#2E3741"/>
<path opacity="0.5" d="M44.2812 136.905L1.05384 111.763L1.05383 161.635L44.2812 136.905Z" fill="#2E3741"/>
<path opacity="0.5" d="M44.2812 174L1.05384 148.858L1.05383 199.142L44.2812 174Z" fill="#2E3741"/>
<path opacity="0.5" d="M44.2812 211.507L1.05384 186.365L1.05383 236.236L44.2812 211.507Z" fill="#2E3741"/>
<path opacity="0.5" d="M44.2812 248.601L1.05384 223.459L1.05383 273.743L44.2812 248.601Z" fill="#2E3741"/>
<path opacity="0.5" d="M44.2812 286.108L1.05384 260.966L1.05383 310.838L44.2812 286.108Z" fill="#2E3741"/>
<path opacity="0.5" d="M8.875 6.25006L-38.0576 -20.9526L-38.0576 33.4528L8.875 6.25006Z" fill="#2E3741"/>
<path opacity="0.5" d="M8.875 43.3447L-38.0576 16.142L-38.0576 70.5474L8.875 43.3447Z" fill="#2E3741"/>
<path opacity="0.5" d="M8.875 80.8513L-38.0576 53.6486L-38.0576 108.054L8.875 80.8513Z" fill="#2E3741"/>
<path opacity="0.5" d="M8.875 117.946L-38.0576 90.7432L-38.0576 145.149L8.875 117.946Z" fill="#2E3741"/>
<path opacity="0.5" d="M8.875 155.453L-38.0576 128.25L-38.0576 182.655L8.875 155.453Z" fill="#2E3741"/>
<path opacity="0.5" d="M8.875 192.547L-38.0576 165.345L-38.0576 219.75L8.875 192.547Z" fill="#2E3741"/>
<path opacity="0.5" d="M8.875 230.054L-38.0576 202.851L-38.0576 257.257L8.875 230.054Z" fill="#2E3741"/>
<path opacity="0.5" d="M8.875 267.149L-38.0576 239.946L-38.0576 294.351L8.875 267.149Z" fill="#2E3741"/>
<path opacity="0.5" d="M8.875 304.655L-38.0576 277.453L-38.0576 331.858L8.875 304.655Z" fill="#2E3741"/>
</g>
<mask id="mask1" mask-type="alpha" maskUnits="userSpaceOnUse" x="-41" y="0" width="1440" height="300">
<rect width="1440" height="300" transform="matrix(-1 0 0 1 1399 0)" fill="black"/>
</mask>
<g mask="url(#mask1)">
</g>
<g clip-path="url(#clip2)">
<path opacity="0.5" d="M823 61.8918L823.412 61.8918L823.412 62.304L823 61.8918Z" fill="#2E3741"/>
<path opacity="0.5" d="M823 136.905L823.412 136.493L823.412 136.905L823 136.905Z" fill="#2E3741"/>
<path opacity="0.5" d="M823 211.507L823.412 211.095L823.412 211.507L823 211.507Z" fill="#2E3741"/>
<path opacity="0.5" d="M823 286.108L823.412 285.696L823.412 286.108L823 286.108Z" fill="#2E3741"/>
<path opacity="0.5" d="M859.641 6.24999L861.287 5.42566L861.287 7.07433L859.641 6.24999Z" fill="#2E3741"/>
<path opacity="0.5" d="M859.641 43.3446L861.287 42.5203L861.287 44.1689L859.641 43.3446Z" fill="#2E3741"/>
<path opacity="0.5" d="M859.641 80.8514L861.287 80.0271L861.287 81.6758L859.641 80.8514Z" fill="#2E3741"/>
<path opacity="0.5" d="M859.641 117.946L861.287 117.122L861.287 118.77L859.641 117.946Z" fill="#2E3741"/>
<path opacity="0.5" d="M859.641 155.453L861.287 154.628L861.287 156.277L859.641 155.453Z" fill="#2E3741"/>
<path opacity="0.5" d="M859.641 192.547L861.287 191.723L861.287 193.372L859.641 192.547Z" fill="#2E3741"/>
<path opacity="0.5" d="M859.641 230.054L861.287 229.23L861.287 230.878L859.641 230.054Z" fill="#2E3741"/>
<path opacity="0.5" d="M859.641 267.149L861.287 266.324L861.287 267.973L859.641 267.149Z" fill="#2E3741"/>
<path opacity="0.5" d="M896.281 24.7972L899.163 23.1486L899.163 26.4458L896.281 24.7972Z" fill="#2E3741"/>
<path opacity="0.5" d="M896.281 61.8918L899.163 60.2432L899.163 63.9526L896.281 61.8918Z" fill="#2E3741"/>
<path opacity="0.5" d="M896.281 99.3987L899.163 97.75L899.163 101.047L896.281 99.3987Z" fill="#2E3741"/>
<path opacity="0.5" d="M896.281 136.905L899.163 134.845L899.163 138.554L896.281 136.905Z" fill="#2E3741"/>
<path opacity="0.5" d="M896.281 174L899.163 172.351L899.163 175.649L896.281 174Z" fill="#2E3741"/>
<path opacity="0.5" d="M896.281 211.507L899.163 209.446L899.163 213.156L896.281 211.507Z" fill="#2E3741"/>
<path opacity="0.5" d="M896.281 248.601L899.163 246.953L899.163 250.25L896.281 248.601Z" fill="#2E3741"/>
<path opacity="0.5" d="M896.281 286.108L899.163 284.047L899.163 287.757L896.281 286.108Z" fill="#2E3741"/>
<path opacity="0.5" d="M932.51 6.25002L937.45 3.36487L937.45 8.72301L932.51 6.25002Z" fill="#2E3741"/>
<path opacity="0.5" d="M932.51 43.3447L937.45 40.8717L937.45 46.2298L932.51 43.3447Z" fill="#2E3741"/>
<path opacity="0.5" d="M932.51 80.8514L937.45 77.9663L937.45 83.3244L932.51 80.8514Z" fill="#2E3741"/>
<path opacity="0.5" d="M932.51 117.946L937.45 115.473L937.45 120.831L932.51 117.946Z" fill="#2E3741"/>
<path opacity="0.5" d="M932.51 155.453L937.45 152.568L937.45 157.926L932.51 155.453Z" fill="#2E3741"/>
<path opacity="0.5" d="M932.51 192.547L937.45 190.074L937.45 195.432L932.51 192.547Z" fill="#2E3741"/>
<path opacity="0.5" d="M932.51 230.054L937.45 227.169L937.45 232.527L932.51 230.054Z" fill="#2E3741"/>
<path opacity="0.5" d="M932.51 267.149L937.45 264.676L937.45 270.034L932.51 267.149Z" fill="#2E3741"/>
<path opacity="0.5" d="M968.738 24.7973L975.737 20.6757L975.737 28.9189L968.738 24.7973Z" fill="#2E3741"/>
<path opacity="0.5" d="M968.738 61.8918L975.737 58.1824L975.737 66.0135L968.738 61.8918Z" fill="#2E3741"/>
<path opacity="0.5" d="M968.738 99.3986L975.737 95.277L975.737 103.52L968.738 99.3986Z" fill="#2E3741"/>
<path opacity="0.5" d="M968.738 136.905L975.737 132.784L975.737 140.615L968.738 136.905Z" fill="#2E3741"/>
<path opacity="0.5" d="M968.738 174L975.737 169.878L975.737 178.122L968.738 174Z" fill="#2E3741"/>
<path opacity="0.5" d="M968.738 211.507L975.737 207.385L975.737 215.216L968.738 211.507Z" fill="#2E3741"/>
<path opacity="0.5" d="M968.738 248.601L975.737 244.48L975.737 252.723L968.738 248.601Z" fill="#2E3741"/>
<path opacity="0.5" d="M968.738 286.108L975.737 281.987L975.737 289.818L968.738 286.108Z" fill="#2E3741"/>
<path opacity="0.5" d="M1004.97 6.24995L1014.02 0.891845L1014.02 11.608L1004.97 6.24995Z" fill="#2E3741"/>
<path opacity="0.5" d="M1004.97 43.3446L1014.02 37.9864L1014.02 48.7027L1004.97 43.3446Z" fill="#2E3741"/>
<path opacity="0.5" d="M1004.97 80.8514L1014.02 75.4933L1014.02 86.2095L1004.97 80.8514Z" fill="#2E3741"/>
<path opacity="0.5" d="M1004.97 117.946L1014.02 112.588L1014.02 123.304L1004.97 117.946Z" fill="#2E3741"/>
<path opacity="0.5" d="M1004.97 155.453L1014.02 150.095L1014.02 160.811L1004.97 155.453Z" fill="#2E3741"/>
<path opacity="0.5" d="M1004.97 192.547L1014.02 187.189L1014.02 197.905L1004.97 192.547Z" fill="#2E3741"/>
<path opacity="0.5" d="M1004.97 230.054L1014.02 224.696L1014.02 235.412L1004.97 230.054Z" fill="#2E3741"/>
<path opacity="0.5" d="M1004.97 267.149L1014.02 261.791L1014.02 272.507L1004.97 267.149Z" fill="#2E3741"/>
<path opacity="0.5" d="M1040.78 24.7974L1052.72 18.2028L1052.72 31.392L1040.78 24.7974Z" fill="#2E3741"/>
<path opacity="0.5" d="M1040.78 61.892L1052.72 55.2974L1052.72 68.8987L1040.78 61.892Z" fill="#2E3741"/>
<path opacity="0.5" d="M1040.78 99.3986L1052.72 92.804L1052.72 105.993L1040.78 99.3986Z" fill="#2E3741"/>
<path opacity="0.5" d="M1040.78 136.905L1052.72 129.899L1052.72 143.5L1040.78 136.905Z" fill="#2E3741"/>
<path opacity="0.5" d="M1040.78 174L1052.72 167.405L1052.72 180.595L1040.78 174Z" fill="#2E3741"/>
<path opacity="0.5" d="M1040.78 211.507L1052.72 204.5L1052.72 218.101L1040.78 211.507Z" fill="#2E3741"/>
<path opacity="0.5" d="M1040.78 248.601L1052.72 242.007L1052.72 255.196L1040.78 248.601Z" fill="#2E3741"/>
<path opacity="0.5" d="M1040.78 286.108L1052.72 279.101L1052.72 292.703L1040.78 286.108Z" fill="#2E3741"/>
<path opacity="0.5" d="M1077.01 6.24995L1091.01 -1.99329L1091.01 14.4932L1077.01 6.24995Z" fill="#2E3741"/>
<path opacity="0.5" d="M1077.01 43.3446L1091.01 35.1013L1091.01 51.5878L1077.01 43.3446Z" fill="#2E3741"/>
<path opacity="0.5" d="M1077.01 80.8513L1091.01 72.608L1091.01 89.0945L1077.01 80.8513Z" fill="#2E3741"/>
<path opacity="0.5" d="M1077.01 117.946L1091.01 109.703L1091.01 126.189L1077.01 117.946Z" fill="#2E3741"/>
<path opacity="0.5" d="M1077.01 155.453L1091.01 147.209L1091.01 163.696L1077.01 155.453Z" fill="#2E3741"/>
<path opacity="0.5" d="M1077.01 192.547L1091.01 184.304L1091.01 200.791L1077.01 192.547Z" fill="#2E3741"/>
<path opacity="0.5" d="M1077.01 230.054L1091.01 221.811L1091.01 238.297L1077.01 230.054Z" fill="#2E3741"/>
<path opacity="0.5" d="M1077.01 267.149L1091.01 258.906L1091.01 275.392L1077.01 267.149Z" fill="#2E3741"/>
<path opacity="0.5" d="M1112.83 24.7973L1129.71 14.9054L1129.71 34.6892L1112.83 24.7973Z" fill="#2E3741"/>
<path opacity="0.5" d="M1112.83 61.8918L1129.71 52.4121L1129.71 71.7837L1112.83 61.8918Z" fill="#2E3741"/>
<path opacity="0.5" d="M1112.83 99.3986L1129.71 89.5067L1129.71 109.29L1112.83 99.3986Z" fill="#2E3741"/>
<path opacity="0.5" d="M1112.83 136.905L1129.71 127.014L1129.71 146.385L1112.83 136.905Z" fill="#2E3741"/>
<path opacity="0.5" d="M1112.83 174L1129.71 164.108L1129.71 183.892L1112.83 174Z" fill="#2E3741"/>
<path opacity="0.5" d="M1112.83 211.507L1129.71 201.615L1129.71 220.987L1112.83 211.507Z" fill="#2E3741"/>
<path opacity="0.5" d="M1112.83 248.601L1129.71 238.709L1129.71 258.493L1112.83 248.601Z" fill="#2E3741"/>
<path opacity="0.5" d="M1112.83 286.108L1129.71 276.216L1129.71 295.588L1112.83 286.108Z" fill="#2E3741"/>
<path opacity="0.5" d="M1148.65 6.25002L1168.41 -5.29053L1168.41 17.7906L1148.65 6.25002Z" fill="#2E3741"/>
<path opacity="0.5" d="M1148.65 43.3446L1168.41 31.8041L1168.41 54.8851L1148.65 43.3446Z" fill="#2E3741"/>
<path opacity="0.5" d="M1148.65 80.8513L1168.41 69.3108L1168.41 92.3919L1148.65 80.8513Z" fill="#2E3741"/>
<path opacity="0.5" d="M1148.65 117.946L1168.41 106.405L1168.41 129.486L1148.65 117.946Z" fill="#2E3741"/>
<path opacity="0.5" d="M1148.65 155.453L1168.41 143.912L1168.41 166.993L1148.65 155.453Z" fill="#2E3741"/>
<path opacity="0.5" d="M1148.65 192.547L1168.41 181.007L1168.41 204.088L1148.65 192.547Z" fill="#2E3741"/>
<path opacity="0.5" d="M1148.65 230.054L1168.41 218.513L1168.41 241.594L1148.65 230.054Z" fill="#2E3741"/>
<path opacity="0.5" d="M1148.65 267.149L1168.41 255.608L1168.41 278.689L1148.65 267.149Z" fill="#2E3741"/>
<path opacity="0.5" d="M1148.65 304.655L1168.41 293.115L1168.41 316.196L1148.65 304.655Z" fill="#2E3741"/>
<path opacity="0.5" d="M1184.05 -12.7095L1207.11 -25.8987L1207.11 0.891867L1184.05 -12.7095Z" fill="#2E3741"/>
<path opacity="0.5" d="M1184.05 24.7973L1207.11 11.6082L1207.11 37.9865L1184.05 24.7973Z" fill="#2E3741"/>
<path opacity="0.5" d="M1184.05 61.892L1207.11 48.7028L1207.11 75.4933L1184.05 61.892Z" fill="#2E3741"/>
<path opacity="0.5" d="M1184.05 99.3987L1207.11 86.2095L1207.11 112.588L1184.05 99.3987Z" fill="#2E3741"/>
<path opacity="0.5" d="M1184.05 136.905L1207.11 123.304L1207.11 150.095L1184.05 136.905Z" fill="#2E3741"/>
<path opacity="0.5" d="M1184.05 174L1207.11 160.811L1207.11 187.189L1184.05 174Z" fill="#2E3741"/>
<path opacity="0.5" d="M1184.05 211.507L1207.11 197.905L1207.11 224.696L1184.05 211.507Z" fill="#2E3741"/>
<path opacity="0.5" d="M1184.05 248.601L1207.11 235.412L1207.11 261.79L1184.05 248.601Z" fill="#2E3741"/>
<path opacity="0.5" d="M1184.05 286.108L1207.11 272.507L1207.11 299.297L1184.05 286.108Z" fill="#2E3741"/>
<path opacity="0.5" d="M1219.87 6.24999L1246.22 -9L1246.22 21.5L1219.87 6.24999Z" fill="#2E3741"/>
<path opacity="0.5" d="M1219.87 43.3446L1246.22 28.0946L1246.22 58.5946L1219.87 43.3446Z" fill="#2E3741"/>
<path opacity="0.5" d="M1219.87 80.8513L1246.22 65.6013L1246.22 96.1013L1219.87 80.8513Z" fill="#2E3741"/>
<path opacity="0.5" d="M1219.87 117.946L1246.22 102.696L1246.22 133.196L1219.87 117.946Z" fill="#2E3741"/>
<path opacity="0.5" d="M1219.87 155.453L1246.22 140.203L1246.22 170.703L1219.87 155.453Z" fill="#2E3741"/>
<path opacity="0.5" d="M1219.87 192.547L1246.22 177.297L1246.22 207.797L1219.87 192.547Z" fill="#2E3741"/>
<path opacity="0.5" d="M1219.87 230.054L1246.22 214.804L1246.22 245.304L1219.87 230.054Z" fill="#2E3741"/>
<path opacity="0.5" d="M1219.87 267.149L1246.22 251.899L1246.22 282.399L1219.87 267.149Z" fill="#2E3741"/>
<path opacity="0.5" d="M1219.87 304.655L1246.22 289.405L1246.22 319.905L1219.87 304.655Z" fill="#2E3741"/>
<path opacity="0.5" d="M1255.69 -12.7095L1284.92 -29.6082L1284.92 4.6013L1255.69 -12.7095Z" fill="#2E3741"/>
<path opacity="0.5" d="M1255.69 24.7973L1284.92 7.89868L1284.92 41.696L1255.69 24.7973Z" fill="#2E3741"/>
<path opacity="0.5" d="M1255.69 61.8919L1284.92 44.9933L1284.92 79.2027L1255.69 61.8919Z" fill="#2E3741"/>
<path opacity="0.5" d="M1255.69 99.3985L1284.92 82.4999L1284.92 116.297L1255.69 99.3985Z" fill="#2E3741"/>
<path opacity="0.5" d="M1255.69 136.905L1284.92 119.594L1284.92 153.804L1255.69 136.905Z" fill="#2E3741"/>
<path opacity="0.5" d="M1255.69 174L1284.92 157.101L1284.92 190.899L1255.69 174Z" fill="#2E3741"/>
<path opacity="0.5" d="M1255.69 211.507L1284.92 194.196L1284.92 228.405L1255.69 211.507Z" fill="#2E3741"/>
<path opacity="0.5" d="M1255.69 248.601L1284.92 231.703L1284.92 265.5L1255.69 248.601Z" fill="#2E3741"/>
<path opacity="0.5" d="M1255.69 286.108L1284.92 268.797L1284.92 303.007L1255.69 286.108Z" fill="#2E3741"/>
<path opacity="0.5" d="M1291.09 6.24998L1324.03 -12.7095L1324.03 25.2094L1291.09 6.24998Z" fill="#2E3741"/>
<path opacity="0.5" d="M1291.09 43.3446L1324.03 24.3851L1324.03 62.3041L1291.09 43.3446Z" fill="#2E3741"/>
<path opacity="0.5" d="M1291.09 80.8513L1324.03 61.8918L1324.03 99.8108L1291.09 80.8513Z" fill="#2E3741"/>
<path opacity="0.5" d="M1291.09 117.946L1324.03 98.9864L1324.03 136.905L1291.09 117.946Z" fill="#2E3741"/>
<path opacity="0.5" d="M1291.09 155.453L1324.03 136.493L1324.03 174.412L1291.09 155.453Z" fill="#2E3741"/>
<path opacity="0.5" d="M1291.09 192.547L1324.03 173.588L1324.03 211.507L1291.09 192.547Z" fill="#2E3741"/>
<path opacity="0.5" d="M1291.09 230.054L1324.03 211.094L1324.03 249.013L1291.09 230.054Z" fill="#2E3741"/>
<path opacity="0.5" d="M1291.09 267.149L1324.03 248.189L1324.03 286.108L1291.09 267.149Z" fill="#2E3741"/>
<path opacity="0.5" d="M1291.09 304.656L1324.03 285.696L1324.03 323.615L1291.09 304.656Z" fill="#2E3741"/>
<path opacity="0.5" d="M1326.91 -12.7094L1362.73 -33.3175L1362.73 8.31085L1326.91 -12.7094Z" fill="#2E3741"/>
<path opacity="0.5" d="M1326.91 24.7974L1362.73 3.7771L1362.73 45.8177L1326.91 24.7974Z" fill="#2E3741"/>
<path opacity="0.5" d="M1326.91 61.8918L1362.73 41.2837L1362.73 82.9121L1326.91 61.8918Z" fill="#2E3741"/>
<path opacity="0.5" d="M1326.91 99.3986L1362.73 78.3783L1362.73 120.419L1326.91 99.3986Z" fill="#2E3741"/>
<path opacity="0.5" d="M1326.91 136.905L1362.73 115.885L1362.73 157.514L1326.91 136.905Z" fill="#2E3741"/>
<path opacity="0.5" d="M1326.91 174L1362.73 152.98L1362.73 195.02L1326.91 174Z" fill="#2E3741"/>
<path opacity="0.5" d="M1326.91 211.507L1362.73 190.486L1362.73 232.115L1326.91 211.507Z" fill="#2E3741"/>
<path opacity="0.5" d="M1326.91 248.601L1362.73 227.581L1362.73 269.622L1326.91 248.601Z" fill="#2E3741"/>
<path opacity="0.5" d="M1326.91 286.108L1362.73 265.088L1362.73 306.716L1326.91 286.108Z" fill="#2E3741"/>
<path opacity="0.5" d="M1362.31 6.25002L1401.84 -16.8311L1401.84 28.9189L1362.31 6.25002Z" fill="#2E3741"/>
<path opacity="0.5" d="M1362.31 43.3445L1401.84 20.6755L1401.84 66.4255L1362.31 43.3445Z" fill="#2E3741"/>
<path opacity="0.5" d="M1362.31 80.8513L1401.84 57.7703L1401.84 103.52L1362.31 80.8513Z" fill="#2E3741"/>
<path opacity="0.5" d="M1362.31 117.946L1401.84 95.277L1401.84 141.027L1362.31 117.946Z" fill="#2E3741"/>
<path opacity="0.5" d="M1362.31 155.453L1401.84 132.372L1401.84 178.122L1362.31 155.453Z" fill="#2E3741"/>
<path opacity="0.5" d="M1362.31 192.547L1401.84 169.878L1401.84 215.628L1362.31 192.547Z" fill="#2E3741"/>
<path opacity="0.5" d="M1362.31 230.054L1401.84 206.973L1401.84 252.723L1362.31 230.054Z" fill="#2E3741"/>
<path opacity="0.5" d="M1362.31 267.149L1401.84 244.48L1401.84 290.23L1362.31 267.149Z" fill="#2E3741"/>
<path opacity="0.5" d="M1362.31 304.655L1401.84 281.574L1401.84 327.324L1362.31 304.655Z" fill="#2E3741"/>
<path opacity="0.5" d="M1397.72 -12.7095L1440.95 -37.4392L1440.95 12.4324L1397.72 -12.7095Z" fill="#2E3741"/>
<path opacity="0.5" d="M1397.72 24.7973L1440.95 -0.344606L1440.95 49.9392L1397.72 24.7973Z" fill="#2E3741"/>
<path opacity="0.5" d="M1397.72 61.8918L1440.95 37.1621L1440.95 87.0337L1397.72 61.8918Z" fill="#2E3741"/>
<path opacity="0.5" d="M1397.72 99.3986L1440.95 74.2567L1440.95 124.541L1397.72 99.3986Z" fill="#2E3741"/>
<path opacity="0.5" d="M1397.72 136.905L1440.95 111.763L1440.95 161.635L1397.72 136.905Z" fill="#2E3741"/>
<path opacity="0.5" d="M1397.72 174L1440.95 148.858L1440.95 199.142L1397.72 174Z" fill="#2E3741"/>
<path opacity="0.5" d="M1397.72 211.507L1440.95 186.365L1440.95 236.236L1397.72 211.507Z" fill="#2E3741"/>
<path opacity="0.5" d="M1397.72 248.601L1440.95 223.459L1440.95 273.743L1397.72 248.601Z" fill="#2E3741"/>
<path opacity="0.5" d="M1397.72 286.108L1440.95 260.966L1440.95 310.838L1397.72 286.108Z" fill="#2E3741"/>
<path opacity="0.5" d="M1433.13 6.25006L1480.06 -20.9526L1480.06 33.4528L1433.13 6.25006Z" fill="#2E3741"/>
<path opacity="0.5" d="M1433.13 43.3447L1480.06 16.142L1480.06 70.5474L1433.13 43.3447Z" fill="#2E3741"/>
<path opacity="0.5" d="M1433.13 80.8513L1480.06 53.6486L1480.06 108.054L1433.13 80.8513Z" fill="#2E3741"/>
<path opacity="0.5" d="M1433.13 117.946L1480.06 90.7432L1480.06 145.149L1433.13 117.946Z" fill="#2E3741"/>
<path opacity="0.5" d="M1433.13 155.453L1480.06 128.25L1480.06 182.655L1433.13 155.453Z" fill="#2E3741"/>
<path opacity="0.5" d="M1433.13 192.547L1480.06 165.345L1480.06 219.75L1433.13 192.547Z" fill="#2E3741"/>
<path opacity="0.5" d="M1433.13 230.054L1480.06 202.851L1480.06 257.257L1433.13 230.054Z" fill="#2E3741"/>
<path opacity="0.5" d="M1433.13 267.149L1480.06 239.946L1480.06 294.351L1433.13 267.149Z" fill="#2E3741"/>
<path opacity="0.5" d="M1433.13 304.655L1480.06 277.453L1480.06 331.858L1433.13 304.655Z" fill="#2E3741"/>
</g>
</g>
<defs>
<clipPath id="clip0">
<rect width="1440" height="295" fill="white"/>
</clipPath>
<clipPath id="clip1">
<rect x="619" y="-131" width="610" height="972" transform="rotate(90 619 -131)" fill="white"/>
</clipPath>
<clipPath id="clip2">
<rect width="610" height="972" transform="matrix(4.37114e-08 1 1 -4.37114e-08 823 -131)" fill="white"/>
</clipPath>
</defs>
</svg>
